<svg xmlns="http://www.w3.org/2000/svg" aria-hidden="true" data-bbox="19.5 26.5 161 147" data-type="color" viewBox="19.5 26.5 161 147"><defs><style>#comp-imm4hb8l svg [data-color=&quot;1&quot;]{fill:#480b04}</style></defs><path fill="#22b573" d="M129.4 26.5H76.2c-31.7 0-56.7 20.4-56.7 63.3v83.7s18.9-30.8 57.7-27h52.2c32.8 0 51.1-25.3 51.1-58 0-36.7-18.4-62-51.1-62zm-33.2 52c-.5 1.6-1.4 3.1-2.7 4.4-1.3 1.4-3.1 2.1-5.3 2.8-2.2.8-5 .8-8.5.8H75c.6 5 2.6 11.1 6.2 15.2s8.5 7.8 14.8 10.9l-3.7 6c-8-3.5-14.8-8.6-20.5-15.4s-8.5-13.5-8.5-20.1c0-7.2 1.6-12.8 4.9-16.8 3.3-4.1 8-6.1 14.1-6.1 3.9 0 7.3 1.3 10.2 4 2.9 2.7 4.3 5.8 4.3 9.3.2 1.7-.1 3.4-.6 5zm41.1 0c-.5 1.6-1.4 3.1-2.7 4.4-1.3 1.4-3.1 2.1-5.3 2.8-2.2.8-5 .8-8.5.8h-4.7c.6 5 2.6 11.1 6.2 15.2s8.5 7.8 14.8 10.9l-3.7 6c-8-3.5-14.8-8.6-20.5-15.4s-8.5-13.5-8.5-20.1c0-7.2 1.6-12.8 4.9-16.8 3.3-4.1 8-6.1 14.1-6.1 3.9 0 7.3 1.3 10.2 4 2.9 2.7 4.3 5.8 4.3 9.3.2 1.7 0 3.4-.6 5z" data-color="1"/></svg>