<svg xmlns="http://www.w3.org/2000/svg" width="200" height="200" aria-hidden="true" data-bbox="55.28 38.51 89.438 122.979" data-type="color" viewBox="55.28 38.51 89.438 122.979"><defs><style>#comp-imm4hbw6 svg [data-color=&quot;1&quot;]{fill:#480b04}</style></defs><path fill="#154BFF" d="M135.403 161.489H64.597c-5.137 0-9.317-4.179-9.317-9.317V47.827c0-5.137 4.179-9.317 9.317-9.317h50.949c2.488 0 4.828.969 6.587 2.729l19.857 19.857a9.254 9.254 0 0 1 2.728 6.588v84.489c.001 5.137-4.178 9.316-9.315 9.316zM64.597 42.237a5.596 5.596 0 0 0-5.591 5.59v104.346a5.597 5.597 0 0 0 5.591 5.59h70.805a5.596 5.596 0 0 0 5.591-5.59V67.684a5.555 5.555 0 0 0-1.638-3.953l-19.857-19.857a5.553 5.553 0 0 0-3.951-1.637h-50.95z" data-color="1"/><path fill="#154BFF" d="M142.856 66.46h-16.769c-5.137 0-9.317-4.179-9.317-9.317v-16.77h3.726v16.77a5.597 5.597 0 0 0 5.591 5.59h16.769v3.727zM96.577 62.586c-3.131 0-5.705 2.575-5.705 5.705 0 3.892 2.162 8.723 4.439 13.265-1.78 5.572-3.8 11.542-6.383 16.581-5.287 2.074-10.002 3.616-12.837 5.901a1.706 1.706 0 0 0-.125.143 5.776 5.776 0 0 0-1.64 4.047c0 3.131 2.575 5.705 5.705 5.705 1.527 0 3-.57 4.065-1.658.037-.028.073-.058.107-.089 2.087-2.492 4.547-7.012 6.739-11.143 5.052-1.988 10.348-4.01 15.458-5.224 3.73 3.006 9.127 4.992 13.568 4.992 3.131 0 5.705-2.575 5.705-5.705s-2.575-5.705-5.705-5.705c-3.561 0-8.737 1.271-12.694 2.603-3.208-3.011-6.154-6.772-8.273-10.769 1.513-4.662 3.281-9.327 3.281-12.944 0-3.13-2.574-5.705-5.705-5.705zm0 3.423a2.256 2.256 0 0 1 2.282 2.282c0 1.712-.917 4.865-1.979 8.255-1.419-3.297-2.585-6.461-2.585-8.255a2.257 2.257 0 0 1 2.282-2.282zm.981 19.523a45.857 45.857 0 0 0 5.919 7.524c-3.383.925-6.688 2.111-9.949 3.352 1.575-3.555 2.836-7.244 4.03-10.876zm22.41 7.292c1.281 0 2.282 1.001 2.282 2.282s-1.001 2.282-2.282 2.282c-2.571 0-6.225-1.161-9.146-2.781 3.353-.948 7.012-1.783 9.146-1.783zM85.915 103.04c-1.604 2.864-3.199 5.537-4.315 6.882-.381.364-.888.588-1.569.588a2.257 2.257 0 0 1-2.282-2.282c0-.603.256-1.201.606-1.587 1.339-1.036 4.251-2.277 7.56-3.601zM142.857 125.155v1.863H57.144v-1.863h85.713zM87.427 134.624c.891 0 1.647.136 2.267.387.62.252 1.124.601 1.511 1.027.407.407.678.891.852 1.434.194.542.271 1.104.271 1.685s-.077 1.143-.271 1.685a3.702 3.702 0 0 1-.852 1.453 4.093 4.093 0 0 1-1.511 1.027c-.62.252-1.375.387-2.267.387h-3.274v5.076h-3.1v-14.161h6.374zm-.852 6.664c.368 0 .717-.019 1.046-.077.329-.058.62-.155.872-.31s.446-.368.601-.639c.155-.291.232-.639.232-1.104 0-.446-.077-.814-.232-1.085a1.736 1.736 0 0 0-.601-.639 2.449 2.449 0 0 0-.872-.31 6.048 6.048 0 0 0-1.046-.077h-2.422v4.243h2.422zM100.388 134.624c.91 0 1.763.136 2.557.426a5.676 5.676 0 0 1 2.034 1.317c.581.581 1.027 1.317 1.356 2.189.31.872.484 1.898.484 3.061 0 1.046-.136 1.995-.407 2.867a6.079 6.079 0 0 1-1.201 2.267 5.748 5.748 0 0 1-1.995 1.492c-.794.368-1.744.542-2.828.542h-6.102v-14.161h6.102zm-.214 11.546a4.13 4.13 0 0 0 1.298-.213 2.897 2.897 0 0 0 1.143-.736c.329-.329.581-.775.794-1.317.194-.542.291-1.201.291-1.976 0-.717-.077-1.356-.213-1.937a3.83 3.83 0 0 0-.678-1.472c-.31-.426-.736-.736-1.259-.949-.523-.213-1.162-.329-1.937-.329h-2.228v8.931h2.789zM118.946 134.624v2.615h-6.858v3.274h5.947v2.422h-5.947v5.85h-3.1v-14.161h9.958z" data-color="1"/></svg>